<mxfile host="app.diagrams.net" modified="2023-11-11T16:28:43.199Z" agent="Mozilla/5.0 (Windows NT 10.0; Win64; x64; rv:109.0) Gecko/20100101 Firefox/119.0" version="22.1.0" etag="chZ37DOywW3s2lXSAI20" type="github">
  <diagram name="Page-1" id="8KWoaxwgEU8B9qcAYmeG">
    <mxGraphModel>
      <root>
        <mxCell id="0" />
        <mxCell id="1" parent="0" />
      </root>
    </mxGraphModel>
  </diagram>
</mxfile>
